<svg id="Layer_1" data-name="Layer 1" xmlns="http://www.w3.org/2000/svg" viewBox="0 0 358 41"><defs><style>.cls-1{fill:#07beb8;}.cls-2{fill:#1a535c;}</style></defs><path class="cls-1" d="M94.53,26.9a16.09,16.09,0,0,1-.94,5.6,12.46,12.46,0,0,1-2.74,4.41,12.05,12.05,0,0,1-4.29,2.82,15,15,0,0,1-5.6,1,14.76,14.76,0,0,1-5.55-1,12.26,12.26,0,0,1-7-7.23,16.11,16.11,0,0,1-.94-5.59,16.28,16.28,0,0,1,1-5.66,12.37,12.37,0,0,1,2.71-4.38,11.92,11.92,0,0,1,4.29-2.8,16.12,16.12,0,0,1,11.15,0,12,12,0,0,1,4.31,2.84,12.21,12.21,0,0,1,2.73,4.38A16.22,16.22,0,0,1,94.53,26.9Zm-6.82,0a10.2,10.2,0,0,0-1.83-6.48A6,6,0,0,0,81,18.11a6.07,6.07,0,0,0-3.51,1,6.55,6.55,0,0,0-2.34,3.05,12.35,12.35,0,0,0-.82,4.71,12.3,12.3,0,0,0,.81,4.65,6.66,6.66,0,0,0,2.31,3.05A6,6,0,0,0,81,35.66a5.91,5.91,0,0,0,4.92-2.33A10.16,10.16,0,0,0,87.71,26.9Z"/><path class="cls-1" d="M106.64,30.9v5.68a4.41,4.41,0,0,1-1,3.1,3.25,3.25,0,0,1-2.47,1,3.11,3.11,0,0,1-2.42-1,4.48,4.48,0,0,1-.94-3.09V17.66q0-4.59,3.31-4.59a2.76,2.76,0,0,1,2.44,1.08,5.86,5.86,0,0,1,.82,3.16,12,12,0,0,1,2.5-3.16,5.16,5.16,0,0,1,3.43-1.08,8.72,8.72,0,0,1,4.16,1.08,3.2,3.2,0,0,1,2,2.83,2.86,2.86,0,0,1-2.72,2.87,9.12,9.12,0,0,1-1.81-.46,8.24,8.24,0,0,0-2.52-.46,3.7,3.7,0,0,0-2.44.78A5,5,0,0,0,107.56,22a16,16,0,0,0-.72,3.67C106.7,27.13,106.64,28.86,106.64,30.9Z"/><path class="cls-1" d="M137.89,37.6l-6-9.86-3.69,3.49v5.4a4.17,4.17,0,0,1-1,3,3.26,3.26,0,0,1-2.38,1.06,3.08,3.08,0,0,1-2.47-1,4.69,4.69,0,0,1-.89-3.09V7.6a5.78,5.78,0,0,1,.87-3.45A2.91,2.91,0,0,1,124.79,3,3.13,3.13,0,0,1,127.28,4a4.78,4.78,0,0,1,.92,3.17V23.68l7.65-8a19.12,19.12,0,0,1,2.16-2,3,3,0,0,1,1.82-.55,3,3,0,0,1,2.12.81,2.71,2.71,0,0,1,.84,2q0,1.5-2.76,4l-3.61,3.31,7,11c.52.81.89,1.43,1.11,1.85a2.65,2.65,0,0,1,.34,1.21,3.55,3.55,0,0,1-.89,2.55,3.07,3.07,0,0,1-2.33.94,2.56,2.56,0,0,1-1.91-.68A15.38,15.38,0,0,1,137.89,37.6Z"/><path class="cls-1" d="M225.36,6.85V17.23a15.83,15.83,0,0,1,3.91-3.05,10.48,10.48,0,0,1,4.93-1.06,10.92,10.92,0,0,1,5.94,1.61,10.54,10.54,0,0,1,4,4.66,17.24,17.24,0,0,1,1.4,7.23,19.53,19.53,0,0,1-.78,5.67,13.39,13.39,0,0,1-2.28,4.47,10.24,10.24,0,0,1-3.62,2.92,10.62,10.62,0,0,1-4.7,1,11.24,11.24,0,0,1-3-.38,8.61,8.61,0,0,1-2.35-1,11.06,11.06,0,0,1-1.66-1.26c-.45-.43-1-1.08-1.8-1.94v.67a4.1,4.1,0,0,1-.92,2.9,3.07,3.07,0,0,1-2.34,1,2.91,2.91,0,0,1-2.31-1,4.29,4.29,0,0,1-.86-2.9V7.15A5,5,0,0,1,219.77,4,2.8,2.8,0,0,1,222.1,3a3,3,0,0,1,2.41,1A4.34,4.34,0,0,1,225.36,6.85ZM225.68,27a9.34,9.34,0,0,0,1.86,6.24,6.06,6.06,0,0,0,4.87,2.18,5.58,5.58,0,0,0,4.42-2.23,9.74,9.74,0,0,0,1.85-6.38,12.66,12.66,0,0,0-.77-4.64,6.87,6.87,0,0,0-2.19-3,5.43,5.43,0,0,0-3.31-1.06A5.93,5.93,0,0,0,229,19.21a7,7,0,0,0-2.4,3.07A11.87,11.87,0,0,0,225.68,27Z"/><path class="cls-1" d="M257.71,30.9v5.68a4.41,4.41,0,0,1-1,3.1,3.25,3.25,0,0,1-2.47,1,3.09,3.09,0,0,1-2.41-1,4.43,4.43,0,0,1-1-3.09V17.66q0-4.59,3.31-4.59a2.76,2.76,0,0,1,2.44,1.08,5.86,5.86,0,0,1,.82,3.16A11.77,11.77,0,0,1,260,14.15a5.12,5.12,0,0,1,3.42-1.08,8.72,8.72,0,0,1,4.16,1.08,3.2,3.2,0,0,1,2,2.83,2.86,2.86,0,0,1-2.72,2.87,8.93,8.93,0,0,1-1.8-.46,8.35,8.35,0,0,0-2.53-.46,3.7,3.7,0,0,0-2.44.78A5,5,0,0,0,258.63,22a16,16,0,0,0-.72,3.67C257.77,27.13,257.71,28.86,257.71,30.9Z"/><path class="cls-1" d="M296.8,26.9a16.09,16.09,0,0,1-.94,5.6,12.46,12.46,0,0,1-2.74,4.41,12.05,12.05,0,0,1-4.29,2.82,15,15,0,0,1-5.6,1,14.76,14.76,0,0,1-5.55-1,12.13,12.13,0,0,1-4.27-2.85,12.27,12.27,0,0,1-2.74-4.38,16.11,16.11,0,0,1-.94-5.59,16.28,16.28,0,0,1,.95-5.66,12.37,12.37,0,0,1,2.71-4.38,11.92,11.92,0,0,1,4.29-2.8,16.12,16.12,0,0,1,11.15,0,12,12,0,0,1,4.31,2.84,12.21,12.21,0,0,1,2.73,4.38A16.22,16.22,0,0,1,296.8,26.9Zm-6.82,0a10.2,10.2,0,0,0-1.83-6.48,6,6,0,0,0-4.92-2.31,6.07,6.07,0,0,0-3.51,1,6.55,6.55,0,0,0-2.34,3.05,12.35,12.35,0,0,0-.82,4.71,12.3,12.3,0,0,0,.81,4.65,6.66,6.66,0,0,0,2.31,3.05,6,6,0,0,0,3.55,1.06,5.91,5.91,0,0,0,4.92-2.33A10.16,10.16,0,0,0,290,26.9Z"/><path class="cls-1" d="M319.34,36.88a20.89,20.89,0,0,1-4.77,2.88,13.31,13.31,0,0,1-5.17,1,9.77,9.77,0,0,1-4.59-1,7.53,7.53,0,0,1-3.05-2.8,7.22,7.22,0,0,1-1.07-3.83,6.87,6.87,0,0,1,1.77-4.76,8.81,8.81,0,0,1,4.85-2.64c.43-.1,1.5-.32,3.22-.67s3.17-.67,4.39-1,2.54-.64,4-1.06A7.08,7.08,0,0,0,317.81,19c-.64-.83-2-1.25-4-1.25a8.3,8.3,0,0,0-3.9.72,6.25,6.25,0,0,0-2.24,2.17,22.38,22.38,0,0,1-1.32,1.9,2.16,2.16,0,0,1-1.66.46,2.91,2.91,0,0,1-2-.73,2.41,2.41,0,0,1-.83-1.88,5.73,5.73,0,0,1,1.27-3.49,9.11,9.11,0,0,1,4-2.79,17.81,17.81,0,0,1,6.7-1.1,19.06,19.06,0,0,1,7,1.06,6.59,6.59,0,0,1,3.63,3.35,14.74,14.74,0,0,1,1.06,6.08c0,1.59,0,2.95,0,4.06s0,2.35,0,3.71a13.68,13.68,0,0,0,.63,4,13,13,0,0,1,.64,2.68,2.52,2.52,0,0,1-1,1.91,3.3,3.3,0,0,1-2.23.86,3,3,0,0,1-2.06-1A14.15,14.15,0,0,1,319.34,36.88ZM318.89,27a32,32,0,0,1-4.34,1.16c-1.9.41-3.22.71-3.95.9a5.28,5.28,0,0,0-2.09,1.12,2.86,2.86,0,0,0-1,2.33,3.47,3.47,0,0,0,1.17,2.63,4.33,4.33,0,0,0,3.06,1.08,8,8,0,0,0,3.73-.89A5.85,5.85,0,0,0,318,33.1a10.48,10.48,0,0,0,.92-5.08Z"/><path class="cls-1" d="M351.09,36.83v-.67a17,17,0,0,1-2.7,2.55,10.07,10.07,0,0,1-2.89,1.5,10.87,10.87,0,0,1-3.4.51,10,10,0,0,1-4.52-1,10.67,10.67,0,0,1-3.6-3,13.44,13.44,0,0,1-2.3-4.51,19.29,19.29,0,0,1-.78-5.6q0-6.37,3.11-9.93a10.32,10.32,0,0,1,8.19-3.57,11.07,11.07,0,0,1,5,1,14.11,14.11,0,0,1,3.93,3.1V7.2A5.08,5.08,0,0,1,351.93,4,2.82,2.82,0,0,1,354.3,3a3,3,0,0,1,2.38,1,4.34,4.34,0,0,1,.84,2.9v30a4.12,4.12,0,0,1-.9,2.91,3,3,0,0,1-2.32,1,3,3,0,0,1-2.3-1A4.15,4.15,0,0,1,351.09,36.83Zm-13.37-10a11.44,11.44,0,0,0,.86,4.7,6.58,6.58,0,0,0,2.35,2.93,5.85,5.85,0,0,0,3.26,1,6,6,0,0,0,3.28-.93,6.51,6.51,0,0,0,2.36-2.87,11.51,11.51,0,0,0,.89-4.81,11.25,11.25,0,0,0-.89-4.67,7,7,0,0,0-2.39-3,5.69,5.69,0,0,0-3.3-1,5.6,5.6,0,0,0-3.33,1.06,6.83,6.83,0,0,0-2.28,3A12.07,12.07,0,0,0,337.72,26.85Z"/><path class="cls-2" d="M30,.28h0a3.27,3.27,0,0,1,2.83,1.64L46.53,25.69a3.27,3.27,0,0,0,5.63.07L66.65,1.86A3.26,3.26,0,0,1,69.45.28h.31a3.27,3.27,0,0,1,2.79,5L52.16,38.89a3.27,3.27,0,0,1-5.63-.07L27.19,5.18A3.27,3.27,0,0,1,30,.28Z"/><path class="cls-2" d="M3.76.28h0A3.27,3.27,0,0,1,6.59,1.92L20.26,25.69a3.28,3.28,0,0,0,5.64.07L40.38,1.86A3.29,3.29,0,0,1,43.18.28h.31a3.27,3.27,0,0,1,2.79,5L25.9,38.89a3.28,3.28,0,0,1-5.64-.07L.92,5.18A3.27,3.27,0,0,1,3.76.28Z"/><path class="cls-2" d="M210,40.46h0a3.26,3.26,0,0,1-2.83-1.63L193.54,15.06a3.27,3.27,0,0,0-5.63-.07l-14.49,23.9a3.25,3.25,0,0,1-2.8,1.57h-.31a3.27,3.27,0,0,1-2.79-5L187.91,1.86a3.27,3.27,0,0,1,5.63.06l19.34,33.65A3.26,3.26,0,0,1,210,40.46Z"/><rect class="cls-1" x="188.08" y="26.9" width="4.61" height="13.32" rx="2.3"/><rect class="cls-1" x="185.64" y="24.85" width="9.23" height="8.6" rx="4.3"/></svg>