<svg id="Layer_1" data-name="Layer 1" xmlns="http://www.w3.org/2000/svg" viewBox="0 0 137.18 137.18"><defs><style>.cls-1{fill:#1a535c;}.cls-2{fill:#07beb8;}</style></defs><path class="cls-1" d="M44.33,47.69h0a3.38,3.38,0,0,1,2.94,1.7L61.46,74.06a3.4,3.4,0,0,0,5.85.07l15-24.81a3.41,3.41,0,0,1,2.9-1.63h.32a3.39,3.39,0,0,1,2.91,5.15L67.31,87.76a3.4,3.4,0,0,1-5.85-.07L41.39,52.77A3.39,3.39,0,0,1,44.33,47.69Z"/><path class="cls-1" d="M17.07,47.69h0A3.41,3.41,0,0,1,20,49.39L34.2,74.06a3.39,3.39,0,0,0,5.84.07l15-24.81A3.39,3.39,0,0,1,58,47.69h.32a3.39,3.39,0,0,1,2.9,5.15L40,87.76a3.39,3.39,0,0,1-5.84-.07L14.13,52.77A3.39,3.39,0,0,1,17.07,47.69Z"/><path class="cls-1" d="M120.11,89.49h0a3.41,3.41,0,0,1-2.94-1.7L103,63.12a3.39,3.39,0,0,0-5.84-.07l-15,24.81a3.39,3.39,0,0,1-2.9,1.63h-.32A3.39,3.39,0,0,1,76,84.34L97.14,49.42a3.39,3.39,0,0,1,5.84.07l20.07,34.92A3.39,3.39,0,0,1,120.11,89.49Z"/><rect class="cls-2" x="97.32" y="75.41" width="4.78" height="13.83" rx="2.39"/><rect class="cls-2" x="94.78" y="73.29" width="9.58" height="8.92" rx="4.46"/><path class="cls-2" d="M68.59,137.09a68.5,68.5,0,1,1,68.5-68.5A68.58,68.58,0,0,1,68.59,137.09Zm0-132.85a64.35,64.35,0,1,0,64.35,64.35A64.43,64.43,0,0,0,68.59,4.24Z"/></svg>